<svg role="img" viewBox="0 0 24 24" xmlns="http://www.w3.org/2000/svg" fill="#5865F2"><title>Discord</title><path d="M20.17 0H3.83C1.71 0 0 1.71 0 3.83v16.34C0 22.29 1.71 24 3.83 24h16.34c2.12 0 3.83-1.71 3.83-3.83V3.83c0-2.12-1.71-3.83-3.83-3.83zM6.9 19.34a2.88 2.88 0 01-2.88-2.88c0-1.59.8-2.91 1.95-3.66a8.97 8.97 0 00-.77-1.12c-.93-.8-1.57-1.89-1.57-3.07a4.07 4.07 0 018.14 0c0 1.18-.64 2.27-1.57 3.07a8.97 8.97 0 00-.77 1.12c1.15.75 1.95 2.07 1.95 3.66a2.88 2.88 0 01-2.88 2.88H6.9zm10.2-1.44a1.2 1.2 0 100-2.4 1.2 1.2 0 000 2.4zm-4.8 0a1.2 1.2 0 100-2.4 1.2 1.2 0 000 2.4zM10.8 12a1.2 1.2 0 100-2.4 1.2 1.2 0 000 2.4zm-4.8 0a1.2 1.2 0 100-2.4 1.2 1.2 0 000 2.4z"/></svg>
